<mxfile host="app.diagrams.net" agent="Mozilla/5.0 (Windows NT 10.0; Win64; x64) AppleWebKit/537.36 (KHTML, like Gecko) Chrome/133.0.0.0 Safari/537.36" version="26.1.2">
  <diagram name="Page-1" id="a-9J0yAcWihQQvmReqq5">
    <mxGraphModel dx="2239" dy="1134" grid="1" gridSize="10" guides="1" tooltips="1" connect="1" arrows="1" fold="1" page="1" pageScale="1" pageWidth="850" pageHeight="1100" math="0" shadow="0">
      <root>
        <mxCell id="0" />
        <mxCell id="1" parent="0" />
        <mxCell id="4TaDsOr_CpE1614TvBzC-1" value="" style="ellipse;whiteSpace=wrap;html=1;aspect=fixed;fillColor=#000000;" parent="1" vertex="1">
          <mxGeometry x="565" y="90" width="20" height="20" as="geometry" />
        </mxCell>
        <mxCell id="4TaDsOr_CpE1614TvBzC-2" value="Bắt đầu khi người dùng gửi yêu cầu" style="text;html=1;align=center;verticalAlign=middle;resizable=0;points=[];autosize=1;strokeColor=none;fillColor=none;" parent="1" vertex="1">
          <mxGeometry x="75" y="50" width="210" height="30" as="geometry" />
        </mxCell>
        <mxCell id="4TaDsOr_CpE1614TvBzC-6" style="edgeStyle=orthogonalEdgeStyle;rounded=0;orthogonalLoop=1;jettySize=auto;html=1;entryX=0.5;entryY=0;entryDx=0;entryDy=0;" parent="1" source="4TaDsOr_CpE1614TvBzC-3" edge="1">
          <mxGeometry relative="1" as="geometry">
            <mxPoint x="385" y="199.9999999999999" as="targetPoint" />
          </mxGeometry>
        </mxCell>
        <mxCell id="4TaDsOr_CpE1614TvBzC-35" style="edgeStyle=orthogonalEdgeStyle;rounded=0;orthogonalLoop=1;jettySize=auto;html=1;entryX=0;entryY=0.5;entryDx=0;entryDy=0;" parent="1" source="4TaDsOr_CpE1614TvBzC-3" target="4TaDsOr_CpE1614TvBzC-1" edge="1">
          <mxGeometry relative="1" as="geometry" />
        </mxCell>
        <mxCell id="4TaDsOr_CpE1614TvBzC-3" value="Nhân viên tiếp nhận yêu cầu" style="rhombus;whiteSpace=wrap;html=1;fillColor=#FAFFBF;" parent="1" vertex="1">
          <mxGeometry x="300" y="60" width="170" height="80" as="geometry" />
        </mxCell>
        <mxCell id="4TaDsOr_CpE1614TvBzC-7" value="Có" style="text;html=1;align=center;verticalAlign=middle;resizable=0;points=[];autosize=1;strokeColor=none;fillColor=none;" parent="1" vertex="1">
          <mxGeometry x="390" y="158" width="40" height="30" as="geometry" />
        </mxCell>
        <mxCell id="4TaDsOr_CpE1614TvBzC-16" style="edgeStyle=orthogonalEdgeStyle;rounded=0;orthogonalLoop=1;jettySize=auto;html=1;entryX=0.5;entryY=0;entryDx=0;entryDy=0;" parent="1" source="4TaDsOr_CpE1614TvBzC-8" target="4TaDsOr_CpE1614TvBzC-14" edge="1">
          <mxGeometry relative="1" as="geometry" />
        </mxCell>
        <mxCell id="4TaDsOr_CpE1614TvBzC-8" value="Phân loại và ghi nhận thông tin yêu cầu" style="rounded=1;whiteSpace=wrap;html=1;fillColor=#CCE7FF;" parent="1" vertex="1">
          <mxGeometry x="325" y="200" width="120" height="60" as="geometry" />
        </mxCell>
        <mxCell id="4TaDsOr_CpE1614TvBzC-36" style="edgeStyle=orthogonalEdgeStyle;rounded=0;orthogonalLoop=1;jettySize=auto;html=1;entryX=0;entryY=0.5;entryDx=0;entryDy=0;" parent="1" source="4TaDsOr_CpE1614TvBzC-9" target="4TaDsOr_CpE1614TvBzC-3" edge="1">
          <mxGeometry relative="1" as="geometry" />
        </mxCell>
        <mxCell id="4TaDsOr_CpE1614TvBzC-9" value="" style="ellipse;whiteSpace=wrap;html=1;aspect=fixed;" parent="1" vertex="1">
          <mxGeometry x="160" y="90" width="20" height="20" as="geometry" />
        </mxCell>
        <mxCell id="4TaDsOr_CpE1614TvBzC-12" value="Không" style="text;html=1;align=center;verticalAlign=middle;resizable=0;points=[];autosize=1;strokeColor=none;fillColor=none;" parent="1" vertex="1">
          <mxGeometry x="480" y="65" width="60" height="30" as="geometry" />
        </mxCell>
        <mxCell id="4TaDsOr_CpE1614TvBzC-13" value="Kết thúc" style="text;html=1;align=center;verticalAlign=middle;resizable=0;points=[];autosize=1;strokeColor=none;fillColor=none;" parent="1" vertex="1">
          <mxGeometry x="585" y="88" width="70" height="30" as="geometry" />
        </mxCell>
        <mxCell id="4TaDsOr_CpE1614TvBzC-19" style="edgeStyle=orthogonalEdgeStyle;rounded=0;orthogonalLoop=1;jettySize=auto;html=1;entryX=0.5;entryY=0;entryDx=0;entryDy=0;" parent="1" source="4TaDsOr_CpE1614TvBzC-14" target="4TaDsOr_CpE1614TvBzC-18" edge="1">
          <mxGeometry relative="1" as="geometry" />
        </mxCell>
        <mxCell id="4TaDsOr_CpE1614TvBzC-20" style="edgeStyle=orthogonalEdgeStyle;rounded=0;orthogonalLoop=1;jettySize=auto;html=1;" parent="1" source="4TaDsOr_CpE1614TvBzC-14" edge="1">
          <mxGeometry relative="1" as="geometry">
            <mxPoint x="570" y="349.9999999999999" as="targetPoint" />
          </mxGeometry>
        </mxCell>
        <mxCell id="4TaDsOr_CpE1614TvBzC-14" value="Yêu cầu có thể giải quyết ngay không" style="rhombus;whiteSpace=wrap;html=1;align=center;labelPosition=center;verticalLabelPosition=middle;verticalAlign=middle;fillColor=#FAFFBF;" parent="1" vertex="1">
          <mxGeometry x="305" y="310" width="160" height="80" as="geometry" />
        </mxCell>
        <mxCell id="4TaDsOr_CpE1614TvBzC-17" value="Có" style="text;html=1;align=center;verticalAlign=middle;resizable=0;points=[];autosize=1;strokeColor=none;fillColor=none;" parent="1" vertex="1">
          <mxGeometry x="390" y="400" width="40" height="30" as="geometry" />
        </mxCell>
        <mxCell id="4TaDsOr_CpE1614TvBzC-38" value="" style="edgeStyle=orthogonalEdgeStyle;rounded=0;orthogonalLoop=1;jettySize=auto;html=1;" parent="1" source="4TaDsOr_CpE1614TvBzC-18" target="4TaDsOr_CpE1614TvBzC-37" edge="1">
          <mxGeometry relative="1" as="geometry" />
        </mxCell>
        <mxCell id="4TaDsOr_CpE1614TvBzC-18" value="Nhân viên đưa ra giải pháp" style="rounded=1;whiteSpace=wrap;html=1;fillColor=#CCE7FF;" parent="1" vertex="1">
          <mxGeometry x="325" y="450" width="120" height="60" as="geometry" />
        </mxCell>
        <mxCell id="4TaDsOr_CpE1614TvBzC-21" value="Không" style="text;html=1;align=center;verticalAlign=middle;resizable=0;points=[];autosize=1;strokeColor=none;fillColor=none;" parent="1" vertex="1">
          <mxGeometry x="470" y="320" width="60" height="30" as="geometry" />
        </mxCell>
        <mxCell id="4TaDsOr_CpE1614TvBzC-29" style="edgeStyle=orthogonalEdgeStyle;rounded=0;orthogonalLoop=1;jettySize=auto;html=1;" parent="1" source="4TaDsOr_CpE1614TvBzC-22" target="4TaDsOr_CpE1614TvBzC-26" edge="1">
          <mxGeometry relative="1" as="geometry" />
        </mxCell>
        <mxCell id="4TaDsOr_CpE1614TvBzC-22" value="Chuyển đến yêu cầu có chuyên gia phù hợp" style="rounded=1;whiteSpace=wrap;html=1;fillColor=#CCE7FF;" parent="1" vertex="1">
          <mxGeometry x="590" y="450" width="120" height="60" as="geometry" />
        </mxCell>
        <mxCell id="4TaDsOr_CpE1614TvBzC-25" style="edgeStyle=orthogonalEdgeStyle;rounded=0;orthogonalLoop=1;jettySize=auto;html=1;entryX=0.5;entryY=0;entryDx=0;entryDy=0;" parent="1" source="4TaDsOr_CpE1614TvBzC-23" target="4TaDsOr_CpE1614TvBzC-22" edge="1">
          <mxGeometry relative="1" as="geometry" />
        </mxCell>
        <mxCell id="4TaDsOr_CpE1614TvBzC-60" style="edgeStyle=orthogonalEdgeStyle;rounded=0;orthogonalLoop=1;jettySize=auto;html=1;" parent="1" source="4TaDsOr_CpE1614TvBzC-23" edge="1">
          <mxGeometry relative="1" as="geometry">
            <mxPoint x="650" y="270.0000000000001" as="targetPoint" />
          </mxGeometry>
        </mxCell>
        <mxCell id="4TaDsOr_CpE1614TvBzC-23" value="Yêu cầu cần chuyên gia hỗ trợ không" style="rhombus;whiteSpace=wrap;html=1;align=center;labelPosition=center;verticalLabelPosition=middle;verticalAlign=middle;fillColor=#FAFFBF;" parent="1" vertex="1">
          <mxGeometry x="570" y="310" width="160" height="80" as="geometry" />
        </mxCell>
        <mxCell id="4TaDsOr_CpE1614TvBzC-31" value="" style="edgeStyle=orthogonalEdgeStyle;rounded=0;orthogonalLoop=1;jettySize=auto;html=1;" parent="1" source="4TaDsOr_CpE1614TvBzC-26" target="4TaDsOr_CpE1614TvBzC-27" edge="1">
          <mxGeometry relative="1" as="geometry" />
        </mxCell>
        <mxCell id="4TaDsOr_CpE1614TvBzC-26" value="Chuyên gia xử lý yêu cầu" style="rounded=1;whiteSpace=wrap;html=1;fillColor=#CCE7FF;" parent="1" vertex="1">
          <mxGeometry x="590" y="550" width="120" height="60" as="geometry" />
        </mxCell>
        <mxCell id="4TaDsOr_CpE1614TvBzC-47" value="" style="edgeStyle=orthogonalEdgeStyle;rounded=0;orthogonalLoop=1;jettySize=auto;html=1;" parent="1" source="4TaDsOr_CpE1614TvBzC-27" target="4TaDsOr_CpE1614TvBzC-32" edge="1">
          <mxGeometry relative="1" as="geometry" />
        </mxCell>
        <mxCell id="4TaDsOr_CpE1614TvBzC-52" value="" style="edgeStyle=orthogonalEdgeStyle;rounded=0;orthogonalLoop=1;jettySize=auto;html=1;" parent="1" source="4TaDsOr_CpE1614TvBzC-27" target="4TaDsOr_CpE1614TvBzC-50" edge="1">
          <mxGeometry relative="1" as="geometry" />
        </mxCell>
        <mxCell id="4TaDsOr_CpE1614TvBzC-27" value="Vấn đề được giải quyết" style="rhombus;whiteSpace=wrap;html=1;align=center;labelPosition=center;verticalLabelPosition=middle;verticalAlign=middle;fillColor=#FAFFBF;" parent="1" vertex="1">
          <mxGeometry x="570" y="660" width="160" height="80" as="geometry" />
        </mxCell>
        <mxCell id="4TaDsOr_CpE1614TvBzC-28" value="Có" style="text;html=1;align=center;verticalAlign=middle;resizable=0;points=[];autosize=1;strokeColor=none;fillColor=none;" parent="1" vertex="1">
          <mxGeometry x="645" y="400" width="40" height="30" as="geometry" />
        </mxCell>
        <mxCell id="4TaDsOr_CpE1614TvBzC-49" style="edgeStyle=orthogonalEdgeStyle;rounded=0;orthogonalLoop=1;jettySize=auto;html=1;entryX=1;entryY=0.5;entryDx=0;entryDy=0;" parent="1" source="4TaDsOr_CpE1614TvBzC-32" target="4TaDsOr_CpE1614TvBzC-39" edge="1">
          <mxGeometry relative="1" as="geometry" />
        </mxCell>
        <mxCell id="4TaDsOr_CpE1614TvBzC-32" value="Chuyên gia thông báo kết quả cho nhân viên hỗ trợ" style="rounded=1;whiteSpace=wrap;html=1;fillColor=#CCE7FF;" parent="1" vertex="1">
          <mxGeometry x="590" y="770" width="120" height="60" as="geometry" />
        </mxCell>
        <mxCell id="4TaDsOr_CpE1614TvBzC-40" value="" style="edgeStyle=orthogonalEdgeStyle;rounded=0;orthogonalLoop=1;jettySize=auto;html=1;" parent="1" source="4TaDsOr_CpE1614TvBzC-37" target="4TaDsOr_CpE1614TvBzC-39" edge="1">
          <mxGeometry relative="1" as="geometry" />
        </mxCell>
        <mxCell id="4TaDsOr_CpE1614TvBzC-44" style="edgeStyle=orthogonalEdgeStyle;rounded=0;orthogonalLoop=1;jettySize=auto;html=1;entryX=1;entryY=0.5;entryDx=0;entryDy=0;" parent="1" source="4TaDsOr_CpE1614TvBzC-37" target="4TaDsOr_CpE1614TvBzC-43" edge="1">
          <mxGeometry relative="1" as="geometry" />
        </mxCell>
        <mxCell id="4TaDsOr_CpE1614TvBzC-37" value="Người dùng xác định vấn đề được giải quyết" style="rhombus;whiteSpace=wrap;html=1;align=center;labelPosition=center;verticalLabelPosition=middle;verticalAlign=middle;fillColor=#FAFFBF;" parent="1" vertex="1">
          <mxGeometry x="305" y="550" width="160" height="80" as="geometry" />
        </mxCell>
        <mxCell id="4TaDsOr_CpE1614TvBzC-57" style="edgeStyle=orthogonalEdgeStyle;rounded=0;orthogonalLoop=1;jettySize=auto;html=1;" parent="1" source="4TaDsOr_CpE1614TvBzC-39" edge="1">
          <mxGeometry relative="1" as="geometry">
            <mxPoint x="385" y="850" as="targetPoint" />
          </mxGeometry>
        </mxCell>
        <mxCell id="4TaDsOr_CpE1614TvBzC-39" value="Cập nhật hồ sơ yêu cầu và đóng" style="rounded=1;whiteSpace=wrap;html=1;fillColor=#CCE7FF;" parent="1" vertex="1">
          <mxGeometry x="325" y="680" width="120" height="60" as="geometry" />
        </mxCell>
        <mxCell id="4TaDsOr_CpE1614TvBzC-42" value="Có" style="text;html=1;align=center;verticalAlign=middle;resizable=0;points=[];autosize=1;strokeColor=none;fillColor=none;" parent="1" vertex="1">
          <mxGeometry x="376" y="638" width="40" height="30" as="geometry" />
        </mxCell>
        <mxCell id="4TaDsOr_CpE1614TvBzC-46" style="edgeStyle=orthogonalEdgeStyle;rounded=0;orthogonalLoop=1;jettySize=auto;html=1;entryX=0;entryY=0.5;entryDx=0;entryDy=0;" parent="1" source="4TaDsOr_CpE1614TvBzC-43" target="4TaDsOr_CpE1614TvBzC-18" edge="1">
          <mxGeometry relative="1" as="geometry">
            <Array as="points">
              <mxPoint x="160" y="480" />
            </Array>
          </mxGeometry>
        </mxCell>
        <mxCell id="4TaDsOr_CpE1614TvBzC-43" value="Thu thập thêm thông tin/ hỗ trợ thêm" style="rounded=1;whiteSpace=wrap;html=1;fillColor=#CCE7FF;" parent="1" vertex="1">
          <mxGeometry x="110" y="560" width="120" height="60" as="geometry" />
        </mxCell>
        <mxCell id="4TaDsOr_CpE1614TvBzC-45" value="Không" style="text;html=1;align=center;verticalAlign=middle;resizable=0;points=[];autosize=1;strokeColor=none;fillColor=none;" parent="1" vertex="1">
          <mxGeometry x="230" y="558" width="60" height="30" as="geometry" />
        </mxCell>
        <mxCell id="4TaDsOr_CpE1614TvBzC-48" value="Có" style="text;html=1;align=center;verticalAlign=middle;resizable=0;points=[];autosize=1;strokeColor=none;fillColor=none;" parent="1" vertex="1">
          <mxGeometry x="655" y="740" width="40" height="30" as="geometry" />
        </mxCell>
        <mxCell id="4TaDsOr_CpE1614TvBzC-54" style="edgeStyle=orthogonalEdgeStyle;rounded=0;orthogonalLoop=1;jettySize=auto;html=1;entryX=1;entryY=0.5;entryDx=0;entryDy=0;" parent="1" source="4TaDsOr_CpE1614TvBzC-50" target="4TaDsOr_CpE1614TvBzC-26" edge="1">
          <mxGeometry relative="1" as="geometry">
            <Array as="points">
              <mxPoint x="960" y="700" />
              <mxPoint x="960" y="580" />
            </Array>
          </mxGeometry>
        </mxCell>
        <mxCell id="4TaDsOr_CpE1614TvBzC-50" value="Chuyên gia thu thập thông tin/ tiếp tục xử lý" style="rounded=1;whiteSpace=wrap;html=1;fillColor=#CCE7FF;" parent="1" vertex="1">
          <mxGeometry x="810" y="670" width="120" height="60" as="geometry" />
        </mxCell>
        <mxCell id="4TaDsOr_CpE1614TvBzC-53" value="Không" style="text;html=1;align=center;verticalAlign=middle;resizable=0;points=[];autosize=1;strokeColor=none;fillColor=none;" parent="1" vertex="1">
          <mxGeometry x="730" y="660" width="60" height="30" as="geometry" />
        </mxCell>
        <mxCell id="4TaDsOr_CpE1614TvBzC-55" value="" style="ellipse;whiteSpace=wrap;html=1;aspect=fixed;fillColor=#000000;" parent="1" vertex="1">
          <mxGeometry x="375" y="852" width="20" height="20" as="geometry" />
        </mxCell>
        <mxCell id="4TaDsOr_CpE1614TvBzC-56" value="Kết thúc" style="text;html=1;align=center;verticalAlign=middle;resizable=0;points=[];autosize=1;strokeColor=none;fillColor=none;" parent="1" vertex="1">
          <mxGeometry x="400" y="851" width="70" height="30" as="geometry" />
        </mxCell>
        <mxCell id="4TaDsOr_CpE1614TvBzC-61" style="edgeStyle=orthogonalEdgeStyle;rounded=0;orthogonalLoop=1;jettySize=auto;html=1;entryX=1;entryY=0.5;entryDx=0;entryDy=0;" parent="1" source="4TaDsOr_CpE1614TvBzC-59" target="4TaDsOr_CpE1614TvBzC-37" edge="1">
          <mxGeometry relative="1" as="geometry" />
        </mxCell>
        <mxCell id="4TaDsOr_CpE1614TvBzC-59" value="Nhân viên hoặc hệ thống xử lý yêu cầu" style="rounded=1;whiteSpace=wrap;html=1;fillColor=#CCE7FF;" parent="1" vertex="1">
          <mxGeometry x="590" y="210" width="120" height="60" as="geometry" />
        </mxCell>
        <mxCell id="4TaDsOr_CpE1614TvBzC-62" value="Không" style="text;html=1;align=center;verticalAlign=middle;resizable=0;points=[];autosize=1;strokeColor=none;fillColor=none;" parent="1" vertex="1">
          <mxGeometry x="655" y="270" width="60" height="30" as="geometry" />
        </mxCell>
      </root>
    </mxGraphModel>
  </diagram>
</mxfile>
